# xmcd CD database file
#
# Track frame offsets:
#	150
#	14173
#	28719
#	52052
#	76586
#	93652
#	115519
#	129919
#	150053
#	167119
#	180719
#	194586
#	211653
#	226053
#	238053
#	256853
#	273919
#	296453
#	322053
#	344986
#
# Disc length: 4802 seconds
#
# Revision: 0
# Processed by: cddbd v1.5.2PL0 Copyright (c) Steve Scherf et al.
# Submitted via: CDex 1.70beta2
#
DISCID=1412c014
DTITLE=DJ FIXIE PRES. - In the City - Electro Beatz CD3
DYEAR=2007
DGENRE=Electro House
TTITLE0=001 - Boom Boom Boom (DJ Antoine Vs. Mad Mark Edit) AM 07erELH128.00# - Mixmaster Presents Marc Vane Feat. Bear Who
TTITLE1=002 - Get Up (Before The Night Is Over) (Tribalectric Mix) AM 07erELH127.00# - Global Deejays feat. Technotronic
TTITLE2=003 - Changes (Dirty South Remix) DJ Promotion CD Pool House 95 07erELH127# - Chris Lake Feat. Laura V.
TTITLE3=004 - One Man (Thomas Gold Remix) CD Pool - Club January 2007 07erELH127.01# - The S&M Project Feat. Sam Noon and Pav
TTITLE4=005 - Talking in Your Sleep (DJ Pantelis Mix)Drill StyleAM 07erELH128# - Dimension X Feat Tasos Fotiadis
TTITLE5=006 - the Beat is Rockin AM 07erELH128.01# - ERICK E
TTITLE6=007 - Planet Rock (Original Mix)AM 07erELH128.01# - Fred Pellichero
TTITLE7=008 - Going Deeper (Portamento Mix)PP 07erELH128# - JEFFRAY and CALMANI
TTITLE8=009 - Let it go (Club Mix Extended)AR 07erELH128# - Phunk Foundation
TTITLE9=010 - One More Time FEDDE LE GRAND STYLE AM 07erELH128.01# - Potty Man
TTITLE10=011 - Escape (Original Mix) CD Pool - Club January 2007 07erELH128.00# - Robbie Rivera
TTITLE11=012 - Lass Uns Tanzen (Hardwell and Greatski Late At Night Remix)PP 07erELH128.01# - SCOOTER
TTITLE12=013 - MￄNNER! (... Sch.... Sexy) (2 Elements Remix) PP 07erELH128.00# - THE ADMIRALS FEAT. SEAPHINA
TTITLE13=014 - In My House DoD 07erELH128.00# - A Clamaran
TTITLE14=015 - Hard (superchumbo thunder mix)  AM 07erELH128# - Africanism all stars
TTITLE15=016 - Let The Beat Hit em (Extended Mix) CD Pool - Club January 2007 07erELH128# - Asbo Feat. Katherine Ellis
TTITLE16=017 - Walking On The Moon (Delano and Crocketts Grand Club Mix) Promo For UA DANCE PLUS 124 07erELH128.01# - Delano and Crockett
TTITLE17=018 - Test (Delano and Crockett`s Mix) DJ Promotion CD Pool Tech Mix 79 07erELH128.00# - Greenfield
TTITLE18=019 - Energy (Club Mix )PP 07erELH128# - HOUSE SHOES
TTITLE19=020 - Jumping Anthem 1 AM 07erELH128.01# - Jumping Junkies
EXTD=YEAR: 2007
EXTT0=
EXTT1=
EXTT2=
EXTT3=
EXTT4=
EXTT5=
EXTT6=
EXTT7=
EXTT8=
EXTT9=
EXTT10=
EXTT11=
EXTT12=
EXTT13=
EXTT14=
EXTT15=
EXTT16=
EXTT17=
EXTT18=
EXTT19=
PLAYORDER=
